<svg
  id="visual"
  viewBox="0 0 900 600"
  width="900"
  height="600"
  xmlns="http://www.w3.org/2000/svg"
  xmlns:xlink="http://www.w3.org/1999/xlink"
  version="1.1"
>
  <path
    d="M0 414L18.8 414.2C37.7 414.3 75.3 414.7 112.8 417.5C150.3 420.3 187.7 425.7 225.2 414.8C262.7 404 300.3 377 337.8 364.3C375.3 351.7 412.7 353.3 450.2 357.7C487.7 362 525.3 369 562.8 381C600.3 393 637.7 410 675.2 409.5C712.7 409 750.3 391 787.8 383.7C825.3 376.3 862.7 379.7 881.3 381.3L900 383L900 601L881.3 601C862.7 601 825.3 601 787.8 601C750.3 601 712.7 601 675.2 601C637.7 601 600.3 601 562.8 601C525.3 601 487.7 601 450.2 601C412.7 601 375.3 601 337.8 601C300.3 601 262.7 601 225.2 601C187.7 601 150.3 601 112.8 601C75.3 601 37.7 601 18.8 601L0 601Z"
    fill="#919191"
  ></path>
  <path
    d="M0 466L18.8 466.7C37.7 467.3 75.3 468.7 112.8 469.8C150.3 471 187.7 472 225.2 460C262.7 448 300.3 423 337.8 412.3C375.3 401.7 412.7 405.3 450.2 415.7C487.7 426 525.3 443 562.8 444.3C600.3 445.7 637.7 431.3 675.2 425.2C712.7 419 750.3 421 787.8 418C825.3 415 862.7 407 881.3 403L900 399L900 601L881.3 601C862.7 601 825.3 601 787.8 601C750.3 601 712.7 601 675.2 601C637.7 601 600.3 601 562.8 601C525.3 601 487.7 601 450.2 601C412.7 601 375.3 601 337.8 601C300.3 601 262.7 601 225.2 601C187.7 601 150.3 601 112.8 601C75.3 601 37.7 601 18.8 601L0 601Z"
    fill="#63656d"
  ></path>
  <path
    d="M0 447L18.8 456.5C37.7 466 75.3 485 112.8 489.2C150.3 493.3 187.7 482.7 225.2 479.3C262.7 476 300.3 480 337.8 478C375.3 476 412.7 468 450.2 464C487.7 460 525.3 460 562.8 466.2C600.3 472.3 637.7 484.7 675.2 484C712.7 483.3 750.3 469.7 787.8 463.3C825.3 457 862.7 458 881.3 458.5L900 459L900 601L881.3 601C862.7 601 825.3 601 787.8 601C750.3 601 712.7 601 675.2 601C637.7 601 600.3 601 562.8 601C525.3 601 487.7 601 450.2 601C412.7 601 375.3 601 337.8 601C300.3 601 262.7 601 225.2 601C187.7 601 150.3 601 112.8 601C75.3 601 37.7 601 18.8 601L0 601Z"
    fill="#383c4a"
  ></path>
  <path
    d="M0 512L18.8 511C37.7 510 75.3 508 112.8 504.5C150.3 501 187.7 496 225.2 497.3C262.7 498.7 300.3 506.3 337.8 514.2C375.3 522 412.7 530 450.2 529C487.7 528 525.3 518 562.8 509.5C600.3 501 637.7 494 675.2 489.7C712.7 485.3 750.3 483.7 787.8 484.8C825.3 486 862.7 490 881.3 492L900 494L900 601L881.3 601C862.7 601 825.3 601 787.8 601C750.3 601 712.7 601 675.2 601C637.7 601 600.3 601 562.8 601C525.3 601 487.7 601 450.2 601C412.7 601 375.3 601 337.8 601C300.3 601 262.7 601 225.2 601C187.7 601 150.3 601 112.8 601C75.3 601 37.7 601 18.8 601L0 601Z"
    fill="#0f172a"
  ></path>
  <!-- <path
    d="M0 541L18.8 544.7C37.7 548.3 75.3 555.7 112.8 560.5C150.3 565.3 187.7 567.7 225.2 569.3C262.7 571 300.3 572 337.8 565C375.3 558 412.7 543 450.2 537.7C487.7 532.3 525.3 536.7 562.8 537.5C600.3 538.3 637.7 535.7 675.2 538.8C712.7 542 750.3 551 787.8 552.5C825.3 554 862.7 548 881.3 545L900 542L900 601L881.3 601C862.7 601 825.3 601 787.8 601C750.3 601 712.7 601 675.2 601C637.7 601 600.3 601 562.8 601C525.3 601 487.7 601 450.2 601C412.7 601 375.3 601 337.8 601C300.3 601 262.7 601 225.2 601C187.7 601 150.3 601 112.8 601C75.3 601 37.7 601 18.8 601L0 601Z"
    fill="#1e1140"
  ></path> -->
</svg>